<?xml version="1.0" standalone="no"?>
<!DOCTYPE svg PUBLIC "-//W3C//DTD SVG 20010904//EN"
 "http://www.w3.org/TR/2001/REC-SVG-20010904/DTD/svg10.dtd">
<svg version="1.0" xmlns="http:/g"
 width="945.000000pt" height="945.000000pt" viewBox="0 0 945.000000 945.000000"
 preserveAspectRatio="xMidYMid meet">
<metadata>
Created by potrace 1.14, written by Peter Selinger 2001-2017
</metadata>
<g transform="translate(0.000000,945.000000) scale(0.100000,-0.100000)"
fill="#000000" stroke="none">
<path d="M1889 9446 c-2 -2 -37 -6 -77 -10 -41 -3 -77 -8 -81 -10 -4 -3 -30
-7 -59 -11 -29 -3 -63 -10 -77 -15 -14 -5 -25 -8 -25 -5 0 2 -19 -2 -41 -11
-23 -8 -51 -16 -63 -18 -104 -20 -401 -155 -541 -246 -243 -159 -495 -421
-636 -662 -54 -92 -149 -289 -149 -308 0 -9 -4 -20 -9 -25 -18 -20 -91 -289
-106 -390 -3 -22 -9 -71 -14 -110 -6 -41 -9 -1253 -9 -2895 -1 -3082 -3 -2920
56 -3171 69 -289 225 -599 417 -829 196 -235 512 -469 773 -571 194 -77 363
-121 557 -146 79 -11 5761 -10 5844 0 35 4 85 12 110 17 25 5 57 12 71 14 14
2 69 16 122 30 480 129 907 445 1182 874 25 40 46 74 46 77 0 3 10 22 23 43
33 53 112 233 142 327 45 137 79 292 93 425 10 92 9 5752 -1 5825 -5 33 -10
71 -13 85 -2 14 -7 41 -10 60 -34 215 -150 509 -280 712 -148 231 -370 459
-589 605 -223 148 -500 260 -765 309 -180 32 -192 32 -3056 33 -1557 0 -2833
-1 -2835 -3z"/>
</g>
</svg>
